<svg width="18" height="18" viewBox="0 0 18 18" fill="none" xmlns="http://www.w3.org/2000/svg">
<g id="print">
<path id="Vector" fill-rule="evenodd" clip-rule="evenodd" d="M6 6.5625H12H13.5C13.7486 6.5625 13.9871 6.66127 14.1629 6.83709C14.3387 7.0129 14.4375 7.25136 14.4375 7.5V10.5C14.4375 10.7486 14.3387 10.9871 14.1629 11.1629C13.9871 11.3387 13.7486 11.4375 13.5 11.4375H12.5625V9.375C12.5625 9.12636 12.4637 8.8879 12.2879 8.71209C12.1121 8.53627 11.8736 8.4375 11.625 8.4375H6.375C6.12636 8.4375 5.8879 8.53627 5.71209 8.71209C5.53627 8.8879 5.4375 9.12636 5.4375 9.375V11.4375H4.5C4.25136 11.4375 4.0129 11.3387 3.83709 11.1629C3.66127 10.9871 3.5625 10.7486 3.5625 10.5V7.5C3.5625 7.25136 3.66127 7.0129 3.83709 6.83709C4.0129 6.66127 4.25136 6.5625 4.5 6.5625H6ZM5.4375 12.5625H4.5C3.95299 12.5625 3.42839 12.3452 3.04159 11.9584C2.6548 11.5716 2.4375 11.047 2.4375 10.5V7.5C2.4375 6.95299 2.6548 6.42839 3.04159 6.04159C3.42839 5.6548 3.95299 5.4375 4.5 5.4375H5.4375V3.375C5.4375 3.12636 5.53627 2.8879 5.71209 2.71209C5.8879 2.53627 6.12636 2.4375 6.375 2.4375H11.625C11.8736 2.4375 12.1121 2.53627 12.2879 2.71209C12.4637 2.8879 12.5625 3.12636 12.5625 3.375V5.4375H13.5C14.047 5.4375 14.5716 5.6548 14.9584 6.04159C15.3452 6.42839 15.5625 6.95299 15.5625 7.5V10.5C15.5625 11.047 15.3452 11.5716 14.9584 11.9584C14.5716 12.3452 14.047 12.5625 13.5 12.5625H12.5625V14.625C12.5625 14.8736 12.4637 15.1121 12.2879 15.2879C12.1121 15.4637 11.8736 15.5625 11.625 15.5625H6.375C6.12636 15.5625 5.8879 15.4637 5.71209 15.2879C5.53627 15.1121 5.4375 14.8736 5.4375 14.625V12.5625ZM11.4375 12V9.5625H6.5625V12V14.4375H11.4375V12ZM11.4375 5.4375H6.5625V3.5625H11.4375V5.4375Z" fill="#458DD6"/>
</g>
</svg>
