<svg width="22" height="22" viewBox="0 0 22 22" fill="none" xmlns="http://www.w3.org/2000/svg">
<g id="home">
<path id="Vector" fill-rule="evenodd" clip-rule="evenodd" d="M18.3334 10.7708C18.1845 10.7715 18.0395 10.7232 17.9209 10.6333L17.1875 10.0836V17.4167C17.1851 17.5983 17.112 17.7718 16.9835 17.9002C16.8551 18.0286 16.6816 18.1018 16.5 18.1042H12.8334H9.16669H5.50002C5.31842 18.1018 5.14493 18.0286 5.01651 17.9002C4.88809 17.7718 4.8149 17.5983 4.81252 17.4167V10.0836L4.07919 10.6333C3.93332 10.7427 3.74997 10.7897 3.56946 10.7639C3.38896 10.7381 3.22609 10.6417 3.11669 10.4958C3.00729 10.35 2.96031 10.1666 2.9861 9.9861C3.01189 9.8056 3.10832 9.64273 3.25419 9.53333L5.08595 8.15951L5.08911 8.15714L10.5875 4.03333C10.7065 3.94408 10.8513 3.89583 11 3.89583C11.1488 3.89583 11.2935 3.94408 11.4125 4.03333L16.911 8.15721L16.914 8.15943L18.7459 9.53333C18.879 9.64145 18.9669 9.79541 18.9923 9.96501C19.0178 10.1346 18.9789 10.3076 18.8834 10.45C18.8249 10.5444 18.7442 10.623 18.6483 10.679C18.5524 10.7349 18.4443 10.7664 18.3334 10.7708ZM9.85419 16.7292H12.1459V11.6875H9.85419V16.7292ZM13.5209 16.7292V11C13.5185 10.8184 13.4453 10.6449 13.3169 10.5165C13.1884 10.3881 13.015 10.3149 12.8334 10.3125H9.16669C8.98509 10.3149 8.8116 10.3881 8.68318 10.5165C8.55476 10.6449 8.48156 10.8184 8.47919 11V16.7292H6.18752V9.05278L11 5.445L15.8125 9.05278V16.7292H13.5209Z" fill="#767676"/>
</g>
</svg>
