<svg width="1134" height="209" viewBox="0 0 1134 209" fill="none" xmlns="http://www.w3.org/2000/svg">
<rect width="1134" height="209" rx="16" fill="#DCE8F8"/>
<path d="M159.957 48.6387V60.3105H157.725V54.5801H155.105V52.7695H157.725V48.6387H159.957ZM160.344 62.543V64.3359H149.34V59.291H151.59V62.543H160.344ZM152.521 51.7676C152.521 53.6133 153.646 55.5996 156.195 56.4258L155.088 58.2012C153.312 57.6299 152.1 56.4609 151.396 55.002C150.693 56.6191 149.419 57.9023 147.529 58.5352L146.387 56.707C149.023 55.8809 150.219 53.7891 150.236 51.75V51.5039H147.02V49.7109H155.703V51.5039H152.521V51.7676ZM174.934 49.3242V50.5723C174.934 51.75 174.934 53.1035 174.617 54.8262H176.674V56.6191H170.451V58.9219H174.951V64.6172H172.701V60.6797H163.508V58.9219H168.201V56.6191H162.031V54.8262H172.35C172.648 53.332 172.692 52.1543 172.701 51.0996H163.824V49.3242H174.934ZM184.672 49.4297V51.4863H187.818V49.4297H190.033V52.2773H192.986V48.6211H195.219V57.375H192.986V54.1055H190.033V56.918H182.422V49.4297H184.672ZM184.672 55.125H187.818V53.209H184.672V55.125ZM186.764 58.043V59.5195H192.986V58.043H195.219V64.4062H184.549V58.043H186.764ZM186.764 62.6133H192.986V61.2422H186.764V62.6133ZM210.846 48.6387V60.7148H208.596V59.4492H205.537V57.9199H208.596V48.6387H210.846ZM211.197 62.543V64.3359H199.279V59.5547H201.512V57.4277C200.079 57.4893 198.717 57.498 197.504 57.498L197.24 55.7227C200.176 55.7051 204.131 55.6699 207.506 55.248L207.629 56.8477C206.363 57.0586 205.054 57.208 203.762 57.3047V60.3457H201.512V62.543H211.197ZM202.443 49.1836C204.764 49.166 206.434 50.3438 206.434 52.0488C206.434 53.7539 204.764 54.8613 202.443 54.8613C200.07 54.8613 198.418 53.7539 198.418 52.0488C198.418 50.3438 200.053 49.166 202.443 49.1836ZM202.443 50.8184C201.301 50.8184 200.527 51.2578 200.545 52.0488C200.527 52.8223 201.301 53.2441 202.443 53.2441C203.516 53.2441 204.289 52.8223 204.307 52.0488C204.289 51.2578 203.516 50.8184 202.443 50.8184ZM226.332 48.6387V57.8496H224.1V56.2852H220.496V54.4922H224.1V52.9629H220.654C219.661 55.4941 217.394 57.2344 213.869 58.2012L212.99 56.4258C216.673 55.459 218.475 53.7012 218.791 51.5039H213.852V49.7109H221.234C221.234 50.2295 221.199 50.7305 221.129 51.2051H224.1V48.6387H226.332ZM221.006 58.043C224.258 58.043 226.438 59.291 226.455 61.2773C226.438 63.2812 224.258 64.5469 221.006 64.5469C217.719 64.5469 215.521 63.2812 215.539 61.2773C215.521 59.291 217.719 58.043 221.006 58.043ZM221.006 59.8008C218.984 59.7832 217.771 60.293 217.771 61.2773C217.771 62.2617 218.984 62.7715 221.006 62.7715C222.992 62.7715 224.205 62.2617 224.205 61.2773C224.205 60.293 222.992 59.7832 221.006 59.8008ZM242.275 48.6211V64.6172H240.131V56.5488H238.689V63.8789H236.562V48.8496H238.689V54.7207H240.131V48.6211H242.275ZM235.227 50.2734V60.5918H228.863V50.2734H235.227ZM230.955 52.0488V58.834H233.135V52.0488H230.955ZM261.594 48.6211V58.1133H259.361V54.334H256.865V52.5234H259.361V48.6211H261.594ZM256.127 58.4648C259.537 58.4824 261.629 59.6074 261.646 61.5586C261.629 63.4922 259.537 64.6348 256.127 64.6348C252.717 64.6348 250.625 63.4922 250.625 61.5586C250.625 59.6074 252.717 58.4824 256.127 58.4648ZM256.127 60.1875C254 60.1875 252.857 60.627 252.857 61.5586C252.857 62.4727 254 62.9297 256.127 62.9297C258.254 62.9297 259.414 62.4727 259.414 61.5586C259.414 60.627 258.254 60.1875 256.127 60.1875ZM257.34 49.5879V51.3809H254.158C254.211 53.2441 255.336 55.125 257.832 55.9512L256.725 57.709C254.958 57.1377 253.745 55.9775 253.051 54.5273C252.339 56.1621 251.064 57.4805 249.166 58.1309L248.006 56.3555C250.634 55.4766 251.812 53.3848 251.873 51.3809H248.656V49.5879H257.34ZM278.311 60.9258V62.7539H263.668V60.9258H269.838V57.9727H265.215V49.6406H267.465V52.1191H274.443V49.6406H276.676V57.9727H272.07V60.9258H278.311ZM267.465 56.1797H274.443V53.9121H267.465V56.1797ZM282.6 61.6992L281.088 66.709H279.225L280.104 61.6992H282.6ZM294.166 52.9805C294.166 55.5645 295.484 58.3242 298.174 59.4492L296.961 61.207C295.071 60.4072 293.771 58.8164 293.059 56.8652C292.329 58.9834 291.002 60.7412 289.121 61.6113L287.838 59.8359C290.492 58.6582 291.863 55.6875 291.863 52.9805V51.9961H288.471V50.168H297.506V51.9961H294.166V52.9805ZM301.355 48.6211V64.6172H299.088V48.6211H301.355ZM316.42 49.3418V50.625C316.42 51.873 316.42 53.2617 316.051 55.0898H318.16V56.9004H303.518V55.0898H313.783C314.135 53.4902 314.179 52.251 314.188 51.1348H305.311V49.3418H316.42ZM316.367 58.5879V64.4414H305.258V58.5879H316.367ZM307.455 60.3457V62.6484H314.135V60.3457H307.455ZM335.844 48.6211V54.5977H338.199V56.4785H335.844V64.6172H333.594V48.6211H335.844ZM325.965 49.8867V53.7891H329.287V49.8867H331.52V60.9082H323.732V49.8867H325.965ZM325.965 59.0977H329.287V55.5293H325.965V59.0977ZM353.422 60.9961V62.8418H338.779V60.9961H344.949V58.5879H340.467V53.209H349.52V51.4512H340.449V49.6582H351.734V54.9668H342.717V56.7598H352.104V58.5879H347.182V60.9961H353.422ZM359.504 63L364.865 52.5234V52.4355H358.625V50.2734H367.607V52.4707L362.246 63H359.504ZM373.391 49.0957C375.816 49.0957 377.662 50.6074 377.662 52.752C377.662 54.8613 375.816 56.3906 373.391 56.3906C370.912 56.3906 369.084 54.8613 369.084 52.752C369.084 50.6074 370.912 49.0957 373.391 49.0957ZM373.391 50.9238C372.16 50.9238 371.246 51.5918 371.264 52.752C371.246 53.8945 372.16 54.5801 373.391 54.5801C374.604 54.5801 375.5 53.8945 375.5 52.752C375.5 51.5918 374.604 50.9238 373.391 50.9238ZM382.232 48.6211V56.6367H379.982V48.6211H382.232ZM382.232 57.3047V61.6465H373.725V62.6836H382.672V64.4414H371.527V60.0117H380V59.0273H371.492V57.3047H382.232ZM403.168 57.5684V59.3613H396.91V64.5996H394.695V59.3613H388.525V57.5684H403.168ZM401.41 49.3945V55.8457H390.248V49.3945H401.41ZM392.463 51.1699V54.0879H399.178V51.1699H392.463ZM418.742 60.9961V62.8418H404.1V60.9961H407.844V58.5527H405.787V53.1738H414.84V51.4512H405.77V49.6582H417.055V54.9668H408.037V56.7422H417.424V58.5527H415.156V60.9961H418.742ZM410.023 60.9961H412.959V58.5527H410.023V60.9961ZM428.797 53.4902C428.797 55.916 429.676 58.3418 431.943 59.5723L430.713 61.207C429.271 60.4688 428.313 59.168 427.76 57.6035C427.197 59.3086 426.239 60.75 424.789 61.5938L423.506 59.9062C425.809 58.5703 426.67 55.9688 426.688 53.4902V53.1211H424.104V51.3281H426.688V49.166H428.779V51.3281H431.311V53.1211H428.797V53.4902ZM437.639 48.6211V64.6172H435.512V48.6211H437.639ZM434.369 48.8848V63.8789H432.26V56.5137H430.379V54.6855H432.26V48.8848H434.369ZM452.844 48.6211V58.2891H450.611V55.1426H448.537V53.3145H450.611V48.6211H452.844ZM452.844 58.9746V64.4414H442.086V58.9746H452.844ZM444.336 60.7324V62.6484H450.646V60.7324H444.336ZM448.818 50.0098V51.8027H439.396V50.0098H443.018V48.4805H445.232V50.0098H448.818ZM444.125 52.3301C446.375 52.3301 447.957 53.5254 447.957 55.1953C447.957 56.9355 446.375 58.0957 444.125 58.0957C441.893 58.0957 440.275 56.9355 440.275 55.1953C440.275 53.5254 441.893 52.3301 444.125 52.3301ZM444.125 54.0176C443.088 54.0176 442.42 54.4395 442.438 55.1953C442.42 56.0039 443.088 56.4434 444.125 56.4434C445.145 56.4434 445.812 56.0039 445.812 55.1953C445.812 54.4395 445.145 54.0176 444.125 54.0176ZM458.557 50.2734L458.328 59.1855H456.078L455.85 50.2734H458.557ZM457.221 63.1582C456.395 63.1582 455.727 62.4902 455.744 61.6816C455.727 60.873 456.395 60.2227 457.221 60.2227C457.994 60.2227 458.68 60.873 458.68 61.6816C458.68 62.4902 457.994 63.1582 457.221 63.1582Z" fill="black"/>
<path d="M156.596 87.9121V94.2148H155.311V87.9121H156.596ZM156.609 94.8027V97.8652H149.855V99H157.02V100.039H148.598V96.8809H155.324V95.8281H148.557V94.8027H156.609ZM150.908 89.1836C150.895 90.8242 152.084 92.3145 153.957 92.9023L153.314 93.9141C151.886 93.4492 150.812 92.4785 150.266 91.2344C149.705 92.5742 148.611 93.6406 147.148 94.1465L146.492 93.1211C148.406 92.4785 149.582 90.8789 149.582 89.1836V88.2402H150.908V89.1836ZM163.049 91.0293C163.035 93.2715 164.389 95.5137 166.289 96.3613L165.51 97.3867C164.102 96.7168 162.987 95.3428 162.42 93.668C161.846 95.459 160.718 96.9424 159.248 97.6602L158.455 96.5664C160.383 95.7051 161.736 93.3672 161.736 91.0293V88.9375H163.049V91.0293ZM168.695 87.9121V100.189H167.396V87.9121H168.695ZM180.275 87.9121V91.5352H182.053V92.6152H180.275V96.8125H178.963V87.9121H180.275ZM176.953 88.8418C176.953 92.0547 174.766 94.3926 171.184 95.4727L170.637 94.4336C173.501 93.5723 175.285 91.9453 175.545 89.9219H171.156V88.8418H176.953ZM180.781 98.8496V99.9023H172.496V95.8965H173.809V98.8496H180.781ZM196.381 87.9258V95.1719H195.082V93.6816H191.992V92.6152H195.082V91.125H192.115C191.329 93.0938 189.49 94.4814 186.838 95.2402L186.318 94.2285C189.217 93.3945 190.912 91.8428 191.145 89.8672H186.947V88.8008H192.553C192.553 89.252 192.505 89.6895 192.43 90.0996H195.082V87.9258H196.381ZM192.348 95.3086C194.822 95.3086 196.449 96.2109 196.463 97.7012C196.449 99.1914 194.822 100.107 192.348 100.107C189.832 100.107 188.219 99.1914 188.219 97.7012C188.219 96.2109 189.832 95.3086 192.348 95.3086ZM192.348 96.334C190.598 96.334 189.504 96.8262 189.504 97.7012C189.504 98.5625 190.598 99.0684 192.348 99.0684C194.07 99.0684 195.15 98.5625 195.164 97.7012C195.15 96.8262 194.07 96.334 192.348 96.334ZM208.809 87.9121V100.162H207.564V93.7773H206.047V99.5605H204.816V88.1445H206.047V92.7109H207.564V87.9121H208.809ZM203.436 89.293V96.9355H198.678V89.293H203.436ZM199.908 90.3184V95.8965H202.219V90.3184H199.908ZM223.998 87.9121V95.1992H222.699V92.0957H220.416V91.0293H222.699V87.9121H223.998ZM219.896 95.541C222.467 95.541 224.039 96.3887 224.039 97.8516C224.039 99.3145 222.467 100.148 219.896 100.162C217.326 100.148 215.74 99.3145 215.754 97.8516C215.74 96.3887 217.326 95.541 219.896 95.541ZM219.896 96.5527C218.105 96.5527 217.039 97.0176 217.039 97.8516C217.039 98.6719 218.105 99.1504 219.896 99.1367C221.688 99.1504 222.754 98.6719 222.754 97.8516C222.754 97.0176 221.688 96.5527 219.896 96.5527ZM218.174 90.0723C218.174 91.6309 219.281 93.1348 221.127 93.7637L220.457 94.7891C219.083 94.3105 218.071 93.333 217.545 92.123C217.005 93.4971 215.932 94.5977 214.469 95.1309L213.785 94.0918C215.686 93.4355 216.848 91.7812 216.848 90.0859V89.8125H214.195V88.7598H220.799V89.8125H218.174V90.0723ZM237.096 97.5645V98.6445H225.885V97.5645H230.82V95.0488H227.17V88.7461H228.469V90.8516H234.484V88.7461H235.77V95.0488H232.105V97.5645H237.096ZM228.469 93.9961H234.484V91.9043H228.469V93.9961ZM249.182 95.1172V96.1426H244.178V100.162H242.906V96.1426H237.971V95.1172H249.182ZM240.65 88.4043V90.0039H246.475V88.4043H247.773V93.7227H239.365V88.4043H240.65ZM240.65 92.6836H246.475V91.043H240.65V92.6836ZM260.297 87.9121V100.189H259.012V93.5039H256.578V92.4375H259.012V87.9121H260.297ZM256.373 89.0059V90.0586H251.957V92.4375H255.854V93.4766H251.957V96.2109C254.008 96.2041 255.43 96.1562 257.057 95.8691L257.193 96.9219C255.416 97.209 253.871 97.2773 251.602 97.291H250.645V89.0059H256.373ZM275.227 87.9121V90.8926H277.004V91.959H275.227V94.9531H273.928V87.9121H275.227ZM275.227 95.5957V100.162H273.928V96.6484H267.188V95.5957H275.227ZM267.461 88.6094V93.0664C269.122 93.0527 270.858 92.9365 272.738 92.5469L272.902 93.6133C270.838 94.0371 268.965 94.1465 267.16 94.1465H266.162V88.6094H267.461ZM281.994 90.2637C281.994 91.5215 283.156 92.6699 285.002 93.0801L284.441 94.0781C282.999 93.7295 281.933 92.9502 281.379 91.9316C280.825 93.0732 279.711 93.9346 278.207 94.3242L277.633 93.3125C279.506 92.8477 280.709 91.6309 280.709 90.2637V90.1543H278.043V89.1152H280.709V87.8711H282.008V89.1152H284.66V90.1543H281.994V90.2637ZM287.326 87.9121V90.5508H289.104V91.6309H287.326V94.3516H286.027V87.9121H287.326ZM287.326 94.9121V97.9062H280.709V99.0273H287.75V100.039H279.438V96.9492H286.041V95.9238H279.41V94.9121H287.326ZM304.416 94.3242V95.3633H299.549V97.6191H298.264V95.3633H293.205V94.3242H304.416ZM303.172 98.8496V99.9023H294.6V96.5527H295.885V98.8496H303.172ZM295.967 88.2949V89.7852H301.641V88.2949H302.939V93.2441H294.682V88.2949H295.967ZM295.967 92.2051H301.641V90.7559H295.967V92.2051ZM309.639 89.8672C309.625 91.4941 310.746 93.0254 312.592 93.6406L311.881 94.6797C310.527 94.1943 309.529 93.2031 309.01 91.959C308.47 93.3262 307.431 94.3994 306.002 94.9395L305.305 93.8867C307.219 93.2168 308.326 91.6035 308.34 89.7988V88.541H309.639V89.8672ZM315.531 95.8145V100.162H314.232V96.8398H307.232V95.8145H315.531ZM315.531 87.9121V95.1719H314.232V91.4531H311.648V90.3867H314.232V87.9121H315.531ZM327.152 87.9121V92.8887H328.93V93.9551H327.152V100.162H325.854V87.9121H327.152ZM321.109 89.2246C321.109 92.2871 320.549 95.0762 318.334 97.4414L317.309 96.7168C319.1 94.8574 319.749 92.7451 319.879 90.291H317.746V89.2246H321.109ZM324.486 89.2246C324.486 92.3281 324.104 95.582 321.848 98.248L320.809 97.5371C322.627 95.4111 323.174 92.9092 323.27 90.291H321.506V89.2246H324.486ZM334.029 91.5215C334.029 93.5723 335.369 95.6914 337.256 96.498L336.545 97.5098C335.103 96.874 333.954 95.5273 333.387 93.8867C332.819 95.6367 331.664 97.127 330.242 97.8242L329.49 96.7988C331.336 95.9375 332.703 93.627 332.717 91.5215V90.2227H329.914V89.1426H336.818V90.2227H334.029V91.5215ZM339.662 87.9121V100.162H338.363V87.9121H339.662ZM343.818 98.0566L342.725 101.83H341.562L342.287 98.0566H343.818ZM358.83 87.9258V96.8945H357.531V92.2871H355.193V91.2344H357.531V87.9258H358.83ZM359.158 98.8496V99.9023H350.873V96.0879H352.172V98.8496H359.158ZM353.006 90.4004C353.006 91.9316 354.113 93.4629 355.959 94.0781L355.289 95.1172C353.915 94.6318 352.896 93.6475 352.363 92.4375C351.83 93.7842 350.757 94.8711 349.301 95.3906L348.631 94.3379C350.518 93.6953 351.68 92.082 351.68 90.4004V89.9219H349.027V88.8555H355.631V89.9219H353.006V90.4004ZM371.914 95.1172V96.1426H366.91V100.162H365.639V96.1426H360.703V95.1172H371.914ZM363.383 88.4043V90.0039H369.207V88.4043H370.506V93.7227H362.098V88.4043H363.383ZM363.383 92.6836H369.207V91.043H363.383V92.6836ZM387.432 94.9395V95.9922H382.428V100.148H381.156V95.9922H376.221V94.9395H387.432ZM386.023 88.5684V93.3809H377.629V88.5684H386.023ZM378.9 89.6074V92.3691H384.725V89.6074H378.9ZM399.545 97.6055V98.6992H388.334V97.6055H391.396V95.4453H389.701V91.5488H396.893V89.8398H389.674V88.7734H398.178V92.6016H390.986V94.3789H398.465V95.4453H396.605V97.6055H399.545ZM392.654 97.6055H395.334V95.4453H392.654V97.6055ZM411.645 97.6055V98.6992H400.434V97.6055H405.369V95.459H401.801V91.5625H408.992V89.8398H401.773V88.7734H410.277V92.6016H403.086V94.3926H410.564V95.459H406.654V97.6055H411.645ZM157.662 124.592V125.658H146.451V124.592H151.4V121.926H152.686V124.592H157.662ZM156.623 116.771V117.824H152.699C152.754 119.54 154.572 120.962 157.088 121.338L156.596 122.35C154.552 122.028 152.843 121.058 152.043 119.629C151.243 121.058 149.541 122.028 147.49 122.35L146.998 121.338C149.514 120.962 151.318 119.54 151.387 117.824H147.463V116.771H151.4V115.131H152.686V116.771H156.623ZM169.762 124.564V125.645H158.551V124.564H163.486V122.049H159.836V115.746H161.135V117.852H167.15V115.746H168.436V122.049H164.771V124.564H169.762ZM161.135 120.996H167.15V118.904H161.135V120.996ZM174.916 118.521C174.916 120.463 176.188 122.623 178.047 123.498L177.309 124.51C175.935 123.847 174.848 122.466 174.301 120.859C173.733 122.616 172.585 124.127 171.184 124.824L170.418 123.799C172.277 122.91 173.631 120.6 173.631 118.521V117.223H170.869V116.143H177.582V117.223H174.916V118.521ZM180.193 114.912V119.766H182.162V120.859H180.193V127.162H178.895V114.912H180.193ZM192.676 120.559V121.598H188.971V124.592H193.961V125.658H182.75V124.592H187.686V121.598H184.145V115.855H192.566V116.908H185.443V120.559H192.676ZM201.48 122.514V123.758H207.1V122.514H208.385V127.012H200.182V122.514H201.48ZM201.48 125.959H207.1V124.756H201.48V125.959ZM208.385 114.926V121.953H207.086V114.926H208.385ZM198.281 120.203C200.592 120.217 203.641 120.217 206.307 119.861L206.389 120.791C205.336 120.969 204.249 121.085 203.176 121.146V122.855H201.891V121.215C200.653 121.27 199.478 121.27 198.445 121.27L198.281 120.203ZM203.08 115.787C203.08 116.977 204.215 117.988 206.033 118.371L205.459 119.342C204.037 119.034 202.971 118.316 202.438 117.346C201.904 118.392 200.838 119.191 199.375 119.547L198.787 118.535C200.633 118.125 201.754 117.045 201.754 115.787V115.213H203.08V115.787ZM220.895 114.912V127.162H219.664V114.912H220.895ZM218.311 115.227V126.561H217.08V120.873H214.688C213.956 122.295 212.794 123.539 211.064 124.551L210.326 123.621C212.924 122.076 214.175 120.019 214.4 117.496H210.9V116.43H215.686C215.679 117.626 215.515 118.768 215.139 119.834H217.08V115.227H218.311ZM237.096 124.564V125.645H225.885V124.564H230.82V122.049H227.17V115.746H228.469V117.852H234.484V115.746H235.77V122.049H232.105V124.564H237.096ZM228.469 120.996H234.484V118.904H228.469V120.996ZM247.896 118.494V119.533H239.461V115.35H240.746V118.494H247.896ZM249.182 121.078V122.117H237.971V121.078H249.182ZM247.979 125.809V126.875H239.365V123.279H240.664V125.809H247.979ZM263.715 114.926V122.172H262.416V120.682H259.326V119.615H262.416V118.125H259.449C258.663 120.094 256.824 121.481 254.172 122.24L253.652 121.229C256.551 120.395 258.246 118.843 258.479 116.867H254.281V115.801H259.887C259.887 116.252 259.839 116.689 259.764 117.1H262.416V114.926H263.715ZM259.682 122.309C262.156 122.309 263.783 123.211 263.797 124.701C263.783 126.191 262.156 127.107 259.682 127.107C257.166 127.107 255.553 126.191 255.553 124.701C255.553 123.211 257.166 122.309 259.682 122.309ZM259.682 123.334C257.932 123.334 256.838 123.826 256.838 124.701C256.838 125.562 257.932 126.068 259.682 126.068C261.404 126.068 262.484 125.562 262.498 124.701C262.484 123.826 261.404 123.334 259.682 123.334ZM276.143 114.912V127.162H274.898V120.777H273.381V126.561H272.15V115.145H273.381V119.711H274.898V114.912H276.143ZM270.77 116.293V123.936H266.012V116.293H270.77ZM267.242 117.318V122.896H269.553V117.318H267.242ZM292.316 121.324V122.363H287.449V124.619H286.164V122.363H281.105V121.324H292.316ZM291.072 125.85V126.902H282.5V123.553H283.785V125.85H291.072ZM283.867 115.295V116.785H289.541V115.295H290.84V120.244H282.582V115.295H283.867ZM283.867 119.205H289.541V117.756H283.867V119.205ZM297.539 116.867C297.525 118.494 298.646 120.025 300.492 120.641L299.781 121.68C298.428 121.194 297.43 120.203 296.91 118.959C296.37 120.326 295.331 121.399 293.902 121.939L293.205 120.887C295.119 120.217 296.227 118.604 296.24 116.799V115.541H297.539V116.867ZM303.432 122.814V127.162H302.133V123.84H295.133V122.814H303.432ZM303.432 114.912V122.172H302.133V118.453H299.549V117.387H302.133V114.912H303.432ZM318.908 114.912V127.189H317.609V114.912H318.908ZM315.162 116.02V120.49H310.76V123.17C312.742 123.163 314.479 123.074 316.529 122.732L316.652 123.799C314.479 124.168 312.633 124.25 310.473 124.25H309.434V119.451H313.836V117.072H309.42V116.02H315.162ZM332.047 124.592V125.699H320.836V124.592H325.758V121.98H321.82V120.955H323.652V117.1H321.793V116.047H331.021V117.1H329.148V120.955H330.98V121.98H327.043V124.592H332.047ZM324.938 120.955H327.877V117.1H324.938V120.955ZM342.875 121.434V122.473H334.344V115.924H342.752V116.977H335.656V118.631H342.492V119.656H335.656V121.434H342.875ZM344.146 124.551V125.617H332.936V124.551H344.146ZM358.967 114.912V127.162H357.723V114.912H358.967ZM356.479 115.172V126.547H355.248V120.312H353.348V119.246H355.248V115.172H356.479ZM352.145 118.33C352.145 120.422 352.992 122.514 354.715 123.512L353.936 124.469C352.767 123.771 351.96 122.534 351.543 121.051C351.099 122.65 350.265 124.011 349.068 124.756L348.275 123.785C350.012 122.732 350.9 120.504 350.9 118.33V117.346H348.645V116.293H354.25V117.346H352.145V118.33ZM366.076 122.609C368.729 122.609 370.396 123.443 370.41 124.879C370.396 126.301 368.729 127.148 366.076 127.135C363.451 127.148 361.77 126.301 361.77 124.879C361.77 123.443 363.451 122.609 366.076 122.609ZM366.076 123.594C364.217 123.594 363.055 124.072 363.068 124.879C363.055 125.672 364.217 126.137 366.076 126.137C367.949 126.137 369.111 125.672 369.125 124.879C369.111 124.072 367.949 123.594 366.076 123.594ZM370.314 115.514V116.539C370.314 117.523 370.314 118.535 369.973 119.793L368.701 119.656C369.029 118.405 369.029 117.503 369.029 116.553H361.865V115.514H370.314ZM371.709 120.545V121.598H360.566V120.545H365.037V118.248H366.309V120.545H371.709ZM156.992 143.225V144.264H147.025V143.225H151.387V141.857H152.672V143.225H156.992ZM157.662 149.746V150.799H154.832V154.176H153.52V150.799H150.566V154.176H149.268V150.799H146.451V149.746H157.662ZM152.029 144.893C154.572 144.893 156.104 145.617 156.104 146.943C156.104 148.256 154.572 148.994 152.029 148.994C149.473 148.994 147.941 148.256 147.955 146.943C147.941 145.617 149.473 144.893 152.029 144.893ZM152.029 145.877C150.266 145.891 149.295 146.246 149.295 146.943C149.295 147.627 150.266 147.996 152.029 147.996C153.779 147.996 154.75 147.627 154.764 146.943C154.75 146.246 153.779 145.891 152.029 145.877ZM169.064 141.912V154.162H167.82V147.832H166.234V153.533H165.045V142.158H166.234V146.766H167.82V141.912H169.064ZM163.555 143.389V144.441H160.26V150.115C161.764 150.102 162.898 150.033 164.211 149.787L164.307 150.854C162.83 151.154 161.572 151.209 159.781 151.223H158.961V143.389H163.555ZM180.768 142.432V143.498H178.99V146.068H180.713V147.094H176.871V148.475H181.82V149.514H170.65V148.475H175.586V147.094H171.73V146.068H173.467V143.498H171.676V142.432H180.768ZM180.562 152.85V153.902H172.059V150.498H173.371V152.85H180.562ZM174.752 146.068H177.691V143.498H174.752V146.068ZM196.381 141.926V150.977H195.082V146.355H192.402V148.939H186.756V142.732H188.055V144.811H191.117V142.732H192.402V145.303H195.082V141.926H196.381ZM196.654 152.85V153.902H188.383V150.088H189.695V152.85H196.654ZM188.055 147.887H191.117V145.809H188.055V147.887ZM208.877 143.635V144.688H198.801V143.635H203.203V142.09H204.488V143.635H208.877ZM209.479 151.729V152.781H198.268V151.729H203.203V150.102C201.057 149.972 199.758 149.124 199.758 147.764C199.758 146.287 201.316 145.426 203.846 145.426C206.348 145.426 207.92 146.287 207.92 147.764C207.92 149.124 206.614 149.972 204.488 150.102V151.729H209.479ZM203.846 146.451C202.096 146.451 201.07 146.916 201.084 147.764C201.07 148.611 202.096 149.076 203.846 149.09C205.568 149.076 206.594 148.611 206.594 147.764C206.594 146.916 205.568 146.451 203.846 146.451ZM223.971 141.912V154.162H222.658V141.912H223.971ZM220.32 143.225C220.32 146.807 218.789 149.924 214.592 151.934L213.908 150.881C217.169 149.329 218.755 147.121 219.008 144.264H214.496V143.225H220.32ZM236.057 142.5V143.539H232.324C232.399 144.872 234.163 146.048 236.439 146.328L235.947 147.354C233.849 147.08 232.126 146.103 231.463 144.729C230.8 146.096 229.084 147.08 226.992 147.354L226.5 146.328C228.79 146.048 230.533 144.872 230.602 143.539H226.91V142.5H236.057ZM237.082 148.146V149.199H232.215V151.578H230.93V149.199H225.871V148.146H237.082ZM235.838 152.85V153.902H227.266V150.402H228.564V152.85H235.838ZM245.586 143.102V153H244.068V144.605H244.014L241.648 146.15V144.715L244.109 143.102H245.586ZM257.809 141.912V154.162H256.51V141.912H257.809ZM247.746 150.826C248.751 150.819 249.906 150.812 251.109 150.771V149.555C249.674 149.37 248.744 148.529 248.758 147.326C248.744 145.945 249.947 145.029 251.725 145.029C253.516 145.029 254.746 145.945 254.746 147.326C254.746 148.516 253.816 149.35 252.395 149.541V150.73C253.529 150.683 254.678 150.594 255.758 150.457L255.854 151.428C253.133 151.879 250.166 151.906 247.924 151.906L247.746 150.826ZM255.484 143.375V144.414H248.006V143.375H251.109V141.939H252.408V143.375H255.484ZM251.725 146.041C250.699 146.041 249.975 146.547 249.988 147.326C249.975 148.105 250.699 148.584 251.725 148.584C252.777 148.584 253.502 148.105 253.502 147.326C253.502 146.547 252.777 146.041 251.725 146.041ZM265.984 142.992V148.707H260.256V142.992H265.984ZM261.527 144.045V147.682H264.713V144.045H261.527ZM269.402 141.898V145.562H271.18V146.656H269.402V150.881H268.104V141.898H269.402ZM269.922 152.85V153.902H261.637V150.02H262.936V152.85H269.922ZM285.453 141.926V150.895H284.154V141.926H285.453ZM285.822 152.85V153.902H277.441V150.047H278.754V152.85H285.822ZM279.752 143.812C279.738 145.604 280.887 147.244 282.773 147.9L282.104 148.939C280.688 148.413 279.643 147.374 279.096 146.041C278.556 147.463 277.496 148.604 276.061 149.158L275.363 148.133C277.291 147.422 278.426 145.658 278.426 143.812V142.596H279.752V143.812ZM291.688 144.523C291.688 145.959 292.877 147.312 294.736 147.832L294.121 148.844C292.706 148.44 291.633 147.565 291.072 146.438C290.539 147.702 289.473 148.7 288.01 149.158L287.395 148.16C289.254 147.559 290.402 146.096 290.402 144.523V144.373H287.736V143.334H290.402V141.857H291.701V143.334H294.354V144.373H291.688V144.523ZM297.607 141.912V149.336H296.309V146.41H293.971V145.344H296.309V141.912H297.607ZM293.506 149.609C296.062 149.609 297.648 150.43 297.648 151.865C297.648 153.314 296.062 154.148 293.506 154.135C290.936 154.148 289.35 153.314 289.363 151.865C289.35 150.43 290.936 149.609 293.506 149.609ZM293.506 150.621C291.715 150.621 290.648 151.072 290.648 151.865C290.648 152.658 291.715 153.137 293.506 153.137C295.311 153.137 296.363 152.658 296.363 151.865C296.363 151.072 295.311 150.621 293.506 150.621ZM312.455 141.912V146.793H314.355V147.873H312.455V154.148H311.156V141.912H312.455ZM309.256 143.197C309.242 146.738 307.684 149.896 303.65 151.893L302.926 150.881C305.995 149.35 307.663 147.135 307.93 144.277H303.541V143.197H309.256ZM324.91 145.221V146.273H316.502V142.131H317.787V145.221H324.91ZM326.195 147.572V148.639H315.012V147.572H326.195ZM320.59 149.637C323.229 149.637 324.814 150.443 324.814 151.865C324.814 153.301 323.229 154.107 320.59 154.107C317.938 154.107 316.338 153.301 316.338 151.865C316.338 150.443 317.938 149.637 320.59 149.637ZM320.59 150.648C318.717 150.662 317.65 151.072 317.65 151.865C317.65 152.645 318.717 153.109 320.59 153.109C322.436 153.109 323.516 152.645 323.516 151.865C323.516 151.072 322.436 150.662 320.59 150.648ZM336.654 141.912V146.875H338.623V147.955H336.654V154.162H335.369V141.912H336.654ZM334.303 143.826V144.893H327.043V143.826H330.064V142.076H331.363V143.826H334.303ZM330.721 145.795C332.471 145.795 333.756 146.971 333.77 148.639C333.756 150.32 332.471 151.482 330.721 151.496C328.957 151.482 327.672 150.32 327.672 148.639C327.672 146.971 328.957 145.795 330.721 145.795ZM330.721 146.861C329.682 146.861 328.902 147.586 328.916 148.639C328.902 149.705 329.682 150.416 330.721 150.402C331.76 150.416 332.525 149.705 332.525 148.639C332.525 147.586 331.76 146.861 330.721 146.861ZM349.383 141.912V154.162H348.084V141.912H349.383ZM341.248 143.102V149.924C343.032 149.91 344.912 149.767 346.881 149.363L347.059 150.457C344.885 150.895 342.916 151.045 340.988 151.045H339.963V143.102H341.248ZM364.859 149.322V150.32H355.754V149.322H359.664V148.283H360.949V149.322H364.859ZM364.668 144.646V145.672H361.004V146.807H365.926V147.846H354.715V146.807H359.705V145.672H356.232V142.09H357.518V144.646H364.668ZM360.293 150.812C362.672 150.812 364.039 151.4 364.039 152.48C364.039 153.561 362.672 154.148 360.293 154.135C357.928 154.148 356.588 153.561 356.588 152.48C356.588 151.4 357.928 150.812 360.293 150.812ZM360.293 151.729C358.775 151.729 357.928 151.961 357.941 152.48C357.928 153 358.775 153.232 360.293 153.232C361.811 153.232 362.672 153 362.672 152.48C362.672 151.961 361.811 151.729 360.293 151.729ZM376.973 141.912V154.162H375.674V141.912H376.973ZM371.436 145.85C371.436 147.805 372.734 149.801 374.635 150.607L373.924 151.605C372.516 150.99 371.388 149.719 370.82 148.174C370.267 149.808 369.159 151.168 367.73 151.811L367.006 150.812C368.906 149.965 370.164 147.9 370.164 145.85V145.043H367.375V144.004H370.15V142.158H371.436V144.004H374.184V145.043H371.436V145.85ZM383.439 145.521C383.439 147.572 384.779 149.691 386.666 150.498L385.955 151.51C384.513 150.874 383.364 149.527 382.797 147.887C382.229 149.637 381.074 151.127 379.652 151.824L378.9 150.799C380.746 149.938 382.113 147.627 382.127 145.521V144.223H379.324V143.143H386.229V144.223H383.439V145.521ZM389.072 141.912V154.162H387.773V141.912H389.072ZM400.639 143.129V151.086H394.91V143.129H400.639ZM396.182 144.154V150.033H399.354V144.154H396.182ZM403.988 141.912V146.711H405.957V147.805H403.988V154.162H402.689V141.912H403.988ZM410.277 145.262C410.277 147.217 411.098 149.309 412.738 150.307L412.014 151.305C410.865 150.614 410.086 149.391 409.676 147.969C409.218 149.527 408.377 150.854 407.188 151.578L406.381 150.607C408.117 149.568 409.02 147.408 409.02 145.316V143.033H410.277V145.262ZM417.086 141.912V154.162H415.842V141.912H417.086ZM414.543 142.145V153.561H413.312V147.299H411.412V146.219H413.312V142.145H414.543ZM429.855 151.551V152.631H418.645V151.551H421.324V148.352C420.319 147.798 419.711 146.916 419.711 145.822C419.711 143.895 421.598 142.623 424.223 142.623C426.861 142.623 428.748 143.895 428.748 145.822C428.748 146.902 428.16 147.771 427.176 148.324V151.551H429.855ZM424.223 143.662C422.295 143.662 420.969 144.496 420.969 145.822C420.969 147.135 422.295 147.996 424.223 147.996C426.137 147.996 427.49 147.135 427.49 145.822C427.49 144.496 426.137 143.662 424.223 143.662ZM422.609 151.551H425.863V148.816C425.364 148.946 424.811 149.008 424.223 149.008C423.648 149.008 423.102 148.946 422.609 148.83V151.551ZM433 143.102L432.877 150.143H431.523L431.4 143.102H433ZM432.207 153.096C431.674 153.096 431.223 152.658 431.236 152.125C431.223 151.592 431.674 151.154 432.207 151.154C432.727 151.154 433.178 151.592 433.178 152.125C433.178 152.658 432.727 153.096 432.207 153.096Z" fill="black"/>
<path d="M797.479 75.8613L798.572 72.0879H799.734L799.01 75.8613H797.479ZM800.227 75.8613L801.32 72.0879H802.482L801.758 75.8613H800.227ZM804.588 82L809.004 73.4688V73.3867H803.904V72.1016H810.562V73.4414L806.16 82H804.588ZM815.129 71.3223C816.975 71.3359 818.328 72.4707 818.342 74.0703C818.328 75.6836 816.975 76.8047 815.129 76.8047C813.27 76.8047 811.902 75.6836 811.902 74.0703C811.902 72.4707 813.27 71.3359 815.129 71.3223ZM815.129 72.416C813.994 72.4023 813.16 73.0723 813.174 74.0703C813.16 75.082 813.994 75.752 815.129 75.752C816.25 75.752 817.084 75.082 817.084 74.0703C817.084 73.0723 816.25 72.4023 815.129 72.416ZM821.814 70.9121V77.1465H820.516V70.9121H821.814ZM821.814 77.707V80.7969H815.061V81.9727H822.225V83.0117H813.803V79.8262H820.529V78.7461H813.762V77.707H821.814ZM838.371 77.9395V78.9922H833.367V83.1484H832.096V78.9922H827.16V77.9395H838.371ZM836.963 71.5684V76.3809H828.568V71.5684H836.963ZM829.84 72.6074V75.3691H835.664V72.6074H829.84ZM850.484 80.6055V81.6992H839.273V80.6055H842.336V78.4453H840.641V74.5488H847.832V72.8398H840.613V71.7734H849.117V75.6016H841.926V77.3789H849.404V78.4453H847.545V80.6055H850.484ZM843.594 80.6055H846.273V78.4453H843.594V80.6055ZM855.037 74.6719C855.037 76.5996 855.926 78.5684 857.621 79.4707L856.896 80.4277C855.714 79.7988 854.887 78.623 854.449 77.2285C854.005 78.7256 853.185 80.0107 852.002 80.7148L851.236 79.7305C852.932 78.7461 853.807 76.6543 853.82 74.6719V74.1797H851.605V73.1133H853.82V71.3496H855.037V73.1133H857.211V74.1797H855.037V74.6719ZM861.887 70.9121V83.1621H860.643V70.9121H861.887ZM859.398 71.1719V82.5469H858.168V76.7637H856.404V75.6836H858.168V71.1719H859.398ZM873.686 70.9121V78.3359H872.387V75.6699H870.473V74.5898H872.387V70.9121H873.686ZM873.686 78.9375V83.0117H865.605V78.9375H873.686ZM866.891 79.9629V81.959H872.414V79.9629H866.891ZM870.664 72.1289V73.168H863.486V72.1289H866.439V70.8027H867.725V72.1289H870.664ZM867.082 73.7285C868.764 73.7285 869.953 74.6309 869.953 75.916C869.953 77.2422 868.764 78.1035 867.082 78.1172C865.4 78.1035 864.197 77.2422 864.197 75.916C864.197 74.6309 865.4 73.7285 867.082 73.7285ZM867.082 74.7266C866.098 74.7129 865.441 75.1914 865.441 75.916C865.441 76.668 866.098 77.1328 867.082 77.1328C868.053 77.1328 868.709 76.668 868.709 75.916C868.709 75.1914 868.053 74.7129 867.082 74.7266ZM877.773 81.0566L876.68 84.8301H875.518L876.242 81.0566H877.773ZM887.084 74.5215C887.084 76.5723 888.424 78.6914 890.311 79.498L889.6 80.5098C888.157 79.874 887.009 78.5273 886.441 76.8867C885.874 78.6367 884.719 80.127 883.297 80.8242L882.545 79.7988C884.391 78.9375 885.758 76.627 885.771 74.5215V73.2227H882.969V72.1426H889.873V73.2227H887.084V74.5215ZM892.717 70.9121V83.1621H891.418V70.9121H892.717ZM904.461 71.5273V72.457C904.461 73.4209 904.461 74.5146 904.146 75.998H905.883V77.0645H894.672V75.998H902.834C903.162 74.5693 903.176 73.5234 903.176 72.5938H896.08V71.5273H904.461ZM904.475 78.623V83.0117H896.039V78.623H904.475ZM897.311 79.6484V81.959H903.189V79.6484H897.311ZM914.688 74.0293C914.674 76.2715 916.027 78.5137 917.928 79.3613L917.148 80.3867C915.74 79.7168 914.626 78.3428 914.059 76.668C913.484 78.459 912.356 79.9424 910.887 80.6602L910.094 79.5664C912.021 78.7051 913.375 76.3672 913.375 74.0293V71.9375H914.688V74.0293ZM920.334 70.9121V83.1895H919.035V70.9121H920.334ZM926.568 73.1133C926.568 74.6719 927.648 76.1621 929.521 76.791L928.865 77.8027C927.478 77.3242 926.459 76.3672 925.926 75.1641C925.393 76.4902 924.333 77.5293 922.891 78.0352L922.193 77.0234C924.107 76.3672 925.256 74.7949 925.27 73.0996V72.7715H922.576V71.7188H929.207V72.7715H926.568V73.1133ZM931.914 70.9121V74.0566H933.691V75.1504H931.914V78.2949H930.615V70.9121H931.914ZM931.914 78.8965V83.1621H930.615V79.9492H923.82V78.8965H931.914ZM943.932 70.9121V75.875H945.9V76.9551H943.932V83.1621H942.646V70.9121H943.932ZM941.58 72.8262V73.8926H934.32V72.8262H937.342V71.0762H938.641V72.8262H941.58ZM937.998 74.7949C939.748 74.7949 941.033 75.9707 941.047 77.6387C941.033 79.3203 939.748 80.4824 937.998 80.4961C936.234 80.4824 934.949 79.3203 934.949 77.6387C934.949 75.9707 936.234 74.7949 937.998 74.7949ZM937.998 75.8613C936.959 75.8613 936.18 76.5859 936.193 77.6387C936.18 78.7051 936.959 79.416 937.998 79.4023C939.037 79.416 939.803 78.7051 939.803 77.6387C939.803 76.5859 939.037 75.8613 937.998 75.8613ZM950.221 74.2617C950.221 76.2168 951.041 78.3086 952.682 79.3066L951.957 80.3047C950.809 79.6143 950.029 78.3906 949.619 76.9688C949.161 78.5273 948.32 79.8535 947.131 80.5781L946.324 79.6074C948.061 78.5684 948.963 76.4082 948.963 74.3164V72.0332H950.221V74.2617ZM957.029 70.9121V83.1621H955.785V70.9121H957.029ZM954.486 71.1445V82.5605H953.256V76.2988H951.355V75.2188H953.256V71.1445H954.486ZM969.799 80.5508V81.6309H958.588V80.5508H961.268V77.3516C960.263 76.7979 959.654 75.916 959.654 74.8223C959.654 72.8945 961.541 71.623 964.166 71.623C966.805 71.623 968.691 72.8945 968.691 74.8223C968.691 75.9023 968.104 76.7705 967.119 77.3242V80.5508H969.799ZM964.166 72.6621C962.238 72.6621 960.912 73.4961 960.912 74.8223C960.912 76.1348 962.238 76.9961 964.166 76.9961C966.08 76.9961 967.434 76.1348 967.434 74.8223C967.434 73.4961 966.08 72.6621 964.166 72.6621ZM962.553 80.5508H965.807V77.8164C965.308 77.9463 964.754 78.0078 964.166 78.0078C963.592 78.0078 963.045 77.9463 962.553 77.8301V80.5508ZM976.115 72.1152L975.021 75.8887H973.859L974.584 72.1152H976.115ZM973.367 72.1152L972.273 75.8887H971.111L971.836 72.1152H973.367Z" fill="black"/>
<rect x="806" y="102" width="161" height="48" rx="8" fill="#F5C939"/>
<path d="M844.831 126.779V128.133H838.397V133.477H836.763V128.133H830.417V126.779H844.831ZM843.021 118.588V124.775H832.228V118.588H843.021ZM833.862 119.924V123.475H841.351V119.924H833.862ZM860.405 130.207V131.613H845.991V130.207H849.929V127.43H847.749V122.42H856.995V120.223H847.714V118.852H858.647V123.773H849.401V126.059H859.017V127.43H856.626V130.207H860.405ZM851.546 130.207H854.991V127.43H851.546V130.207ZM875.962 130.207V131.613H861.548V130.207H867.894V127.447H863.306V122.438H872.552V120.223H863.271V118.852H874.204V123.773H864.958V126.076H874.573V127.447H869.546V130.207H875.962ZM887.282 121.752C887.265 124.635 889.005 127.518 891.448 128.607L890.446 129.926C888.636 129.064 887.203 127.298 886.474 125.145C885.735 127.447 884.285 129.354 882.396 130.277L881.376 128.871C883.854 127.764 885.595 124.758 885.595 121.752V119.062H887.282V121.752ZM894.542 117.744V133.529H892.872V117.744H894.542ZM902.558 120.574C902.558 122.578 903.946 124.494 906.354 125.303L905.511 126.604C903.727 125.988 902.417 124.758 901.731 123.211C901.046 124.916 899.684 126.252 897.829 126.902L896.933 125.602C899.394 124.758 900.87 122.736 900.888 120.557V120.135H897.425V118.781H905.95V120.135H902.558V120.574ZM909.431 117.744V121.787H911.716V123.193H909.431V127.236H907.761V117.744H909.431ZM909.431 128.01V133.494H907.761V129.363H899.024V128.01H909.431ZM924.882 117.744V124.125H927.413V125.514H924.882V133.494H923.229V117.744H924.882ZM921.858 120.205V121.576H912.524V120.205H916.409V117.955H918.079V120.205H921.858ZM917.253 122.736C919.503 122.736 921.155 124.248 921.173 126.393C921.155 128.555 919.503 130.049 917.253 130.066C914.985 130.049 913.333 128.555 913.333 126.393C913.333 124.248 914.985 122.736 917.253 122.736ZM917.253 124.107C915.917 124.107 914.915 125.039 914.933 126.393C914.915 127.764 915.917 128.678 917.253 128.66C918.589 128.678 919.573 127.764 919.573 126.393C919.573 125.039 918.589 124.107 917.253 124.107ZM941.265 117.744V133.494H939.577V117.744H941.265ZM936.571 119.432C936.571 124.037 934.603 128.045 929.206 130.629L928.327 129.275C932.52 127.28 934.559 124.441 934.884 120.768H929.083V119.432H936.571Z" fill="black"/>
</svg>
