<svg xmlns="http://www.w3.org/2000/svg" width="24" height="24" viewBox="0 0 24 24" fill="none">
  <path d="M12 15.2499C11.9015 15.2504 11.8038 15.2312 11.7128 15.1934C11.6218 15.1556 11.5392 15.1 11.47 15.0299L6.47 10.0299C6.37027 9.88402 6.32527 9.70759 6.34293 9.53175C6.36058 9.35592 6.43977 9.19196 6.56651 9.0688C6.69325 8.94565 6.85941 8.8712 7.03569 8.8586C7.21196 8.846 7.38702 8.89604 7.53 8.99992L12 13.4399L16.47 8.99992C16.611 8.90853 16.7785 8.8671 16.9458 8.88229C17.1131 8.89748 17.2705 8.9684 17.3927 9.08368C17.5149 9.19896 17.5948 9.35192 17.6197 9.51806C17.6446 9.68419 17.613 9.85388 17.53 9.99992L12.53 14.9999C12.4633 15.0755 12.3819 15.1366 12.2908 15.1796C12.1997 15.2226 12.1007 15.2465 12 15.2499Z" fill="#212121"/>
</svg>