<svg width="24" height="25" viewBox="0 0 24 25" fill="none" xmlns="http://www.w3.org/2000/svg">
<g id="angle-down">
<path id="Vector" d="M8.39384 9.50567C8.49238 9.50521 8.59002 9.52443 8.68104 9.5622C8.77205 9.59998 8.8546 9.65556 8.92384 9.72567L11.9238 12.7257L14.9238 9.72567C15.0691 9.65552 15.2331 9.63408 15.3916 9.66454C15.55 9.69499 15.6944 9.77572 15.8033 9.89473C15.9122 10.0137 15.9798 10.1647 15.9961 10.3252C16.0124 10.4857 15.9766 10.6472 15.8938 10.7857L12.3938 14.2857C12.2532 14.4261 12.0626 14.505 11.8638 14.505C11.6651 14.505 11.4745 14.4261 11.3338 14.2857L7.83384 10.7857C7.69339 10.645 7.6145 10.4544 7.6145 10.2557C7.6145 10.0569 7.69339 9.8663 7.83384 9.72567C7.90657 9.65183 7.99401 9.59409 8.09047 9.55619C8.18694 9.51829 8.2903 9.50108 8.39384 9.50567Z" fill="#0E0E0E"/>
</g>
</svg>
