<svg xmlns="http://www.w3.org/2000/svg" width="24" height="24" viewBox="0 0 24 24" fill="none">
<path d="M18.6079 12.0177C19.3391 11.2679 19.747 10.2612 19.744 9.21378C19.741 8.16492 19.3262 7.15921 18.5889 6.41326L18.6079 12.0177ZM18.6079 12.0177L12.0198 18.6253L5.43112 12.0171C4.69999 11.2697 4.29053 10.2657 4.29053 9.22002C4.29053 8.17468 4.69974 7.17094 5.43044 6.4236C6.17086 5.68515 7.17395 5.27037 8.21981 5.27037C9.26733 5.27037 10.272 5.68646 11.0127 6.42712C11.0127 6.42713 11.0127 6.42715 11.0127 6.42716L11.2927 6.70712L12.0123 7.42674L12.7192 6.69461L12.9947 6.40924C13.3596 6.04144 13.7938 5.74961 14.2722 5.55062C14.7523 5.35091 15.2673 5.24873 15.7873 5.25002L15.7923 5.25001C16.3123 5.24873 16.8273 5.35091 17.3075 5.55062C17.7875 5.75029 18.223 6.04346 18.5887 6.41305L18.6079 12.0177Z" fill="white" stroke="#3A3A3A" stroke-width="2"/>
</svg>