<svg width="18" height="20" viewBox="0 0 18 20" fill="none" xmlns="http://www.w3.org/2000/svg">
<path d="M16 11.586V8C16 4.783 13.815 2.073 10.855 1.258C10.562 0.52 9.846 0 9 0C8.154 0 7.438 0.52 7.145 1.258C4.185 2.074 2 4.783 2 8V11.586L0.293 13.293C0.105451 13.4805 5.66374e-05 13.7348 0 14V16C0 16.2652 0.105357 16.5196 0.292893 16.7071C0.48043 16.8946 0.734784 17 1 17H17C17.2652 17 17.5196 16.8946 17.7071 16.7071C17.8946 16.5196 18 16.2652 18 16V14C17.9999 13.7348 17.8946 13.4805 17.707 13.293L16 11.586ZM16 15H2V14.414L3.707 12.707C3.89455 12.5195 3.99994 12.2652 4 12V8C4 5.243 6.243 3 9 3C11.757 3 14 5.243 14 8V12C14 12.266 14.105 12.52 14.293 12.707L16 14.414V15ZM9 20C9.6193 20.0008 10.2235 19.8086 10.7285 19.4502C11.2335 19.0917 11.6143 18.5849 11.818 18H6.182C6.38566 18.5849 6.76648 19.0917 7.27151 19.4502C7.77654 19.8086 8.3807 20.0008 9 20Z" fill="#3A3A3A"/>
</svg>
