<svg xmlns="http://www.w3.org/2000/svg" width="24" height="24" viewBox="0 0 24 24" fill="none">
  <path d="M19.2998 5.71002C18.8408 5.24601 18.2941 4.87797 17.6915 4.62731C17.0889 4.37666 16.4425 4.2484 15.7898 4.25002C15.1372 4.2484 14.4907 4.37666 13.8881 4.62731C13.2855 4.87797 12.7388 5.24601 12.2798 5.71002L11.9998 6.00002L11.7198 5.72001C10.7915 4.79182 9.53255 4.27037 8.21981 4.27037C6.90708 4.27037 5.6481 4.79182 4.71981 5.72001C3.80368 6.65466 3.29053 7.91125 3.29053 9.22002C3.29053 10.5288 3.80368 11.7854 4.71981 12.72L11.4898 19.51C11.6304 19.6505 11.8211 19.7294 12.0198 19.7294C12.2186 19.7294 12.4092 19.6505 12.5498 19.51L19.3198 12.72C20.2363 11.7823 20.7478 10.5221 20.744 9.21092C20.7403 7.89973 20.2216 6.64248 19.2998 5.71002Z" fill="#F53B32"/>
</svg>