<svg xmlns="http://www.w3.org/2000/svg" width="20" height="20" viewBox="0 0 20 20" fill="none">
  <path d="M14.3334 17.2917C14.2314 17.2915 14.1311 17.2657 14.0417 17.2167L10 15.0917L5.95836 17.2167C5.85566 17.2718 5.73959 17.2971 5.62325 17.2898C5.50692 17.2824 5.39496 17.2427 5.30003 17.175C5.20525 17.1055 5.13167 17.0111 5.08752 16.9021C5.04337 16.7932 5.03039 16.6742 5.05003 16.5583L5.83336 12.0583L2.55003 8.875C2.46774 8.79264 2.4101 8.68892 2.3836 8.57555C2.35709 8.46217 2.36278 8.34365 2.40003 8.23334C2.43492 8.12262 2.50035 8.02399 2.58881 7.94881C2.67726 7.87362 2.78514 7.82493 2.90003 7.80834L7.4167 7.15L9.4417 3.05834C9.49933 2.96165 9.58109 2.88158 9.67896 2.82598C9.77683 2.77038 9.88747 2.74115 10 2.74115C10.1126 2.74115 10.2232 2.77038 10.3211 2.82598C10.419 2.88158 10.5007 2.96165 10.5584 3.05834L12.5834 7.15L17.1 7.80834C17.2149 7.82493 17.3228 7.87362 17.4113 7.94881C17.4997 8.02399 17.5651 8.12262 17.6 8.23334C17.6373 8.34365 17.643 8.46217 17.6165 8.57555C17.59 8.68892 17.5323 8.79264 17.45 8.875L14.1667 12.0583L14.9417 16.5583C14.9613 16.6742 14.9484 16.7932 14.9042 16.9021C14.8601 17.0111 14.7865 17.1055 14.6917 17.175C14.5862 17.248 14.4616 17.2885 14.3334 17.2917ZM10 13.7667C10.1009 13.7679 10.2003 13.7906 10.2917 13.8333L13.5 15.5L12.8917 11.925C12.8752 11.8247 12.8824 11.722 12.9128 11.625C12.9432 11.5281 12.9959 11.4396 13.0667 11.3667L15.6667 8.86667L12.075 8.33334C11.9757 8.31753 11.8816 8.2783 11.8004 8.21889C11.7193 8.15947 11.6534 8.08158 11.6084 7.99167L10 4.74167L8.3917 8C8.34663 8.08992 8.28079 8.16781 8.19964 8.22722C8.11849 8.28663 8.02436 8.32587 7.92503 8.34167L4.33336 8.86667L6.93336 11.3667C7.00415 11.4396 7.05685 11.5281 7.08724 11.625C7.11763 11.722 7.12487 11.8247 7.10836 11.925L6.50003 15.525L9.70836 13.8583C9.79775 13.8069 9.89729 13.7756 10 13.7667Z" fill="#458DD6"/>
</svg>