<svg xmlns="http://www.w3.org/2000/svg" width="18" height="19" viewBox="0 0 18 19" fill="none">
<path fill-rule="evenodd" clip-rule="evenodd" d="M4.9401 13.2732C5.86882 13.8938 6.96071 14.225 8.07768 14.225C8.81932 14.225 9.5537 14.0789 10.2389 13.7951C10.7503 13.5833 11.2269 13.2978 11.6537 12.9485L14.6027 15.8975C14.6546 15.9501 14.7165 15.9917 14.7848 16.0201C14.853 16.0484 14.9263 16.0628 15.0002 16.0625C15.0741 16.0628 15.1473 16.0484 15.2156 16.0201C15.2838 15.9917 15.3457 15.9501 15.3977 15.8975C15.503 15.792 15.5622 15.649 15.5622 15.5C15.5622 15.3509 15.503 15.2079 15.3977 15.1025L12.4487 12.1535C12.798 11.7267 13.0834 11.2501 13.2953 10.7387C13.5791 10.0535 13.7252 9.31914 13.7252 8.5775C13.7252 7.46053 13.394 6.36864 12.7734 5.43991C12.1528 4.51119 11.2708 3.78733 10.2389 3.35989C9.20694 2.93244 8.07141 2.8206 6.97591 3.03851C5.8804 3.25642 4.87411 3.79429 4.08429 4.58411C3.29448 5.37393 2.7566 6.38021 2.53869 7.47572C2.32078 8.57123 2.43262 9.70675 2.86007 10.7387C3.28751 11.7706 4.01137 12.6527 4.9401 13.2732ZM5.57761 4.82088C6.31763 4.32642 7.18766 4.0625 8.07768 4.0625C9.27115 4.0625 10.4157 4.5366 11.2597 5.38051C12.1036 6.22443 12.5777 7.36902 12.5777 8.56249C12.5777 9.45251 12.3138 10.3225 11.8193 11.0626C11.3248 11.8026 10.622 12.3794 9.79975 12.72C8.97749 13.0605 8.07269 13.1497 7.19977 12.976C6.32686 12.8024 5.52503 12.3738 4.8957 11.7445C4.26636 11.1151 3.83778 10.3133 3.66414 9.4404C3.49051 8.56749 3.57963 7.66269 3.92022 6.84042C4.26081 6.01815 4.83759 5.31535 5.57761 4.82088Z" fill="#212121"/>
</svg>