<svg xmlns="http://www.w3.org/2000/svg" width="18" height="18" viewBox="0 0 18 18" fill="none">
  <path d="M9.5625 8.4375V3.75C9.5625 3.60082 9.50324 3.45774 9.39775 3.35225C9.29226 3.24676 9.14918 3.1875 9 3.1875C8.85082 3.1875 8.70774 3.24676 8.60225 3.35225C8.49676 3.45774 8.4375 3.60082 8.4375 3.75V8.4375H3.75C3.60082 8.4375 3.45774 8.49676 3.35225 8.60225C3.24676 8.70774 3.1875 8.85082 3.1875 9C3.1875 9.14918 3.24676 9.29226 3.35225 9.39775C3.45774 9.50324 3.60082 9.5625 3.75 9.5625H8.4375V14.25C8.43944 14.3986 8.49933 14.5405 8.6044 14.6456C8.70947 14.7507 8.85142 14.8106 9 14.8125C9.14918 14.8125 9.29226 14.7532 9.39775 14.6477C9.50324 14.5423 9.5625 14.3992 9.5625 14.25V9.5625H14.25C14.3992 9.5625 14.5423 9.50324 14.6477 9.39775C14.7532 9.29226 14.8125 9.14918 14.8125 9C14.8106 8.85142 14.7507 8.70947 14.6456 8.6044C14.5405 8.49933 14.3986 8.43944 14.25 8.4375H9.5625Z" fill="#212121"/>
</svg>