<svg xmlns="http://www.w3.org/2000/svg" width="18" height="18" viewBox="0 0 18 18" fill="none">
<path d="M9.79509 9L13.1101 5.685C13.1654 5.6335 13.2097 5.5714 13.2404 5.5024C13.2712 5.4334 13.2877 5.35892 13.289 5.28339C13.2904 5.20786 13.2765 5.13284 13.2482 5.0628C13.2199 4.99276 13.1778 4.92913 13.1244 4.87572C13.071 4.82231 13.0073 4.7802 12.9373 4.75191C12.8672 4.72362 12.7922 4.70972 12.7167 4.71106C12.6412 4.71239 12.5667 4.72892 12.4977 4.75966C12.4287 4.79041 12.3666 4.83473 12.3151 4.89L9.00009 8.205L5.68509 4.89C5.57846 4.79064 5.43742 4.73655 5.2917 4.73912C5.14597 4.74169 5.00693 4.80072 4.90387 4.90378C4.80081 5.00684 4.74178 5.14588 4.73921 5.29161C4.73664 5.43733 4.79073 5.57837 4.89009 5.685L8.20509 9L4.89009 12.315C4.78475 12.4205 4.72559 12.5634 4.72559 12.7125C4.72559 12.8616 4.78475 13.0045 4.89009 13.11C4.99556 13.2153 5.13853 13.2745 5.28759 13.2745C5.43665 13.2745 5.57962 13.2153 5.68509 13.11L9.00009 9.795L12.3151 13.11C12.4206 13.2153 12.5635 13.2745 12.7126 13.2745C12.8617 13.2745 13.0046 13.2153 13.1101 13.11C13.2154 13.0045 13.2746 12.8616 13.2746 12.7125C13.2746 12.5634 13.2154 12.4205 13.1101 12.315L9.79509 9Z" fill="#212121"/>
</svg>