<svg width="24" height="24" viewBox="0 0 24 24" fill="none" xmlns="http://www.w3.org/2000/svg">
<g id="angle-down">
<path id="Vector" d="M8.39384 9.00566C8.49238 9.0052 8.59002 9.02442 8.68104 9.0622C8.77205 9.09998 8.8546 9.15555 8.92384 9.22566L11.9238 12.2257L14.9238 9.22566C15.0691 9.15551 15.2331 9.13407 15.3916 9.16453C15.55 9.19498 15.6944 9.27571 15.8033 9.39472C15.9122 9.51374 15.9798 9.66469 15.9961 9.82519C16.0124 9.98569 15.9766 10.1472 15.8938 10.2857L12.3938 13.7857C12.2532 13.9261 12.0626 14.005 11.8638 14.005C11.6651 14.005 11.4745 13.9261 11.3338 13.7857L7.83384 10.2857C7.69339 10.145 7.6145 9.95441 7.6145 9.75566C7.6145 9.55691 7.69339 9.36629 7.83384 9.22566C7.90657 9.15182 7.99401 9.09408 8.09047 9.05618C8.18694 9.01828 8.2903 9.00107 8.39384 9.00566Z" fill="#D5D5D5"/>
</g>
</svg>
