<svg xmlns="http://www.w3.org/2000/svg" width="20" height="20" viewBox="0 0 20 20" fill="none">
<path d="M17.6 8.23334C17.5651 8.12262 17.4997 8.02399 17.4113 7.94881C17.3228 7.87362 17.2149 7.82493 17.1 7.80834L12.5834 7.15L10.5584 3.05834C10.5007 2.96165 10.419 2.88158 10.3211 2.82598C10.2232 2.77038 10.1126 2.74115 10 2.74115C9.88747 2.74115 9.77683 2.77038 9.67896 2.82598C9.58109 2.88158 9.49933 2.96165 9.4417 3.05834L7.4167 7.15L2.90003 7.80834C2.78514 7.82493 2.67726 7.87362 2.58881 7.94881C2.50035 8.02399 2.43492 8.12262 2.40003 8.23334C2.36278 8.34365 2.35709 8.46217 2.3836 8.57555C2.4101 8.68892 2.46774 8.79264 2.55003 8.875L5.83336 12.0583L5.05836 16.5583C5.03872 16.6742 5.0517 16.7932 5.09585 16.9021C5.14 17.0111 5.21358 17.1055 5.30836 17.175C5.4033 17.2427 5.51525 17.2824 5.63159 17.2898C5.74792 17.2971 5.864 17.2718 5.9667 17.2167L10 15.0917L14.0417 17.2167C14.1311 17.2657 14.2314 17.2915 14.3334 17.2917C14.4645 17.2902 14.5922 17.2495 14.7 17.175C14.7948 17.1055 14.8684 17.0111 14.9125 16.9021C14.9567 16.7932 14.9697 16.6742 14.95 16.5583L14.1667 12.0583L17.4417 8.875C17.5254 8.79353 17.5846 8.69023 17.6126 8.57681C17.6406 8.46339 17.6362 8.3444 17.6 8.23334Z" fill="white"/>
</svg>