<svg xmlns="http://www.w3.org/2000/svg" width="18" height="18" viewBox="0 0 18 18" fill="none">
  <path d="M6.75 13.6874C6.67447 13.6849 6.60025 13.667 6.5319 13.6347C6.46354 13.6025 6.4025 13.5566 6.3525 13.4999L2.6025 9.74995C2.531 9.70359 2.47097 9.64159 2.42693 9.56864C2.3829 9.49569 2.35602 9.41368 2.34831 9.32882C2.34061 9.24396 2.35229 9.15845 2.38246 9.07876C2.41264 8.99908 2.46053 8.92728 2.52251 8.86881C2.58449 8.81034 2.65895 8.76671 2.74026 8.74122C2.82157 8.71573 2.90761 8.70905 2.99188 8.72168C3.07615 8.73431 3.15645 8.76592 3.22672 8.81413C3.29698 8.86233 3.35538 8.92587 3.3975 8.99995L6.75 12.3299L14.6025 4.49995C14.7082 4.4314 14.8339 4.40034 14.9594 4.41173C15.0848 4.42312 15.2029 4.47631 15.2945 4.56277C15.3862 4.64923 15.4461 4.76395 15.4648 4.88855C15.4835 5.01315 15.4598 5.14042 15.3975 5.24995L7.1475 13.4999C7.0975 13.5566 7.03645 13.6025 6.9681 13.6347C6.89975 13.667 6.82553 13.6849 6.75 13.6874Z" fill="#212121"/>
</svg>