<svg width="29" height="20" viewBox="0 0 29 20" fill="none" xmlns="http://www.w3.org/2000/svg">
<path d="M12.7526 16.2456C12.3118 16.2456 11.9403 16.1511 11.6381 15.9622C11.3484 15.7607 11.1092 15.4963 10.9203 15.1688C10.7314 14.8414 10.5739 14.4636 10.448 14.0354L8.4079 6.80057L7.25561 3.5326H10.5802L13.2626 12.7509L14.0749 16C13.8734 16.063 13.653 16.1196 13.4137 16.17C13.1871 16.2204 12.9667 16.2456 12.7526 16.2456ZM4.02542 16.4534C3.62243 16.4534 3.295 16.3274 3.04314 16.0756C2.79127 15.8363 2.66534 15.5592 2.66534 15.2444C2.66534 15.0807 2.69682 14.9485 2.75979 14.8477C3.16277 14.8099 3.52798 14.6588 3.85541 14.3944C4.18283 14.1173 4.47878 13.7395 4.74324 13.2609C5.0077 12.7824 5.24697 12.2094 5.46106 11.542C5.68774 10.8745 5.90182 10.1252 6.10332 9.29405C6.30481 8.46289 6.50001 7.56247 6.68891 6.59278C6.87781 5.62309 7.073 4.60303 7.2745 3.5326L8.55902 5.25159C8.35752 6.86354 8.14344 8.26769 7.91676 9.46406C7.69008 10.6478 7.4508 11.649 7.19894 12.4676C6.95966 13.2861 6.7078 13.9599 6.44334 14.4888C6.19147 15.0177 5.93331 15.427 5.66885 15.7166C5.40439 15.9937 5.13363 16.1826 4.85658 16.2834C4.57952 16.3967 4.30247 16.4534 4.02542 16.4534ZM2.98647 9.06737C2.50792 9.06737 2.10493 8.96662 1.77751 8.76513C1.46267 8.55104 1.2234 8.2614 1.05969 7.89619C0.895973 7.53098 0.814116 7.128 0.814116 6.68723C0.814116 6.23387 0.895973 5.78681 1.05969 5.34604C1.23599 4.90527 1.50045 4.50858 1.85307 4.15597C2.21827 3.79076 2.67793 3.50112 3.23204 3.28703C3.78614 3.07294 4.441 2.9659 5.1966 2.9659C5.86404 2.9659 6.48741 3.00998 7.06671 3.09813C7.646 3.18628 8.219 3.27444 8.7857 3.36259C9.36499 3.45074 9.96317 3.50741 10.5802 3.5326L9.14461 5.0438L7.14227 4.40154L7.04782 4.23153C6.6952 4.13078 6.3237 4.08041 5.93331 4.08041C5.24067 4.08041 4.68027 4.30709 4.2521 4.76045C3.82392 5.20122 3.60984 5.83088 3.60984 6.64945C3.60984 7.00206 3.64132 7.33579 3.70429 7.65062C3.77985 7.96545 3.90578 8.30547 4.08209 8.67068C3.93097 8.80921 3.74836 8.90995 3.53428 8.97292C3.33278 9.03589 3.15018 9.06737 2.98647 9.06737ZM14.0749 16L13.0171 13.3365C13.3193 11.3342 13.5964 9.58999 13.8482 8.10398C14.1127 6.61797 14.3645 5.36493 14.6038 4.34487C14.8557 3.31222 15.1201 2.48106 15.3972 1.85139C15.6742 1.20913 15.9828 0.749474 16.3228 0.47242C16.6754 0.182773 17.0658 0.03795 17.494 0.03795C17.8844 0.03795 18.1929 0.15129 18.4196 0.37797C18.6589 0.592056 18.8289 0.90689 18.9296 1.32247C18.4259 1.72546 17.9788 2.27956 17.5884 2.98479C17.198 3.69002 16.8454 4.51488 16.5306 5.45938C16.2158 6.39129 15.9198 7.42394 15.6428 8.55734C15.3657 9.67815 15.1013 10.8682 14.8494 12.1275C14.5975 13.3743 14.3394 14.6651 14.0749 16Z" fill="#0091DA"/>
<path d="M26.917 19.0224C26.5392 19.0224 26.2055 18.9154 25.9158 18.7013C25.6262 18.4872 25.3743 18.1409 25.1602 17.6623C24.9587 17.1964 24.795 16.573 24.6691 15.7922C24.5557 15.0114 24.4739 14.048 24.4235 12.902H21.3444C20.8029 13.8465 20.3055 14.577 19.8521 15.0933C19.4114 15.6096 19.0021 15.9622 18.6243 16.1511C18.2465 16.3526 17.9002 16.4534 17.5853 16.4534C17.1194 16.4534 16.7731 16.34 16.5464 16.1133C16.3323 15.8867 16.2316 15.6285 16.2441 15.3389C16.2441 15.2381 16.2567 15.1499 16.2819 15.0744C16.3071 14.9988 16.3386 14.9233 16.3764 14.8477C16.792 14.8351 17.1949 14.7155 17.5853 14.4888C17.9883 14.2495 18.3787 13.9221 18.7565 13.5065C19.1343 13.0783 19.5121 12.562 19.8899 11.9575C20.2677 11.3531 20.6518 10.673 21.0422 9.91742C21.4326 9.14923 21.8356 8.31177 22.2512 7.40505C22.6667 6.49833 23.1012 5.52864 23.5546 4.49599L23.4601 4.32598C23.2838 4.26301 23.076 4.20634 22.8368 4.15597C22.5975 4.1056 22.3582 4.08041 22.1189 4.08041C21.3885 4.08041 20.7966 4.31968 20.3433 4.79823C19.9025 5.26418 19.6695 5.90015 19.6443 6.70612C19.6443 7.05873 19.6758 7.39875 19.7388 7.72618C19.8018 8.04101 19.9277 8.38733 20.1166 8.76513C19.9529 8.90366 19.7577 9.0107 19.531 9.08626C19.3169 9.14923 19.1217 9.18071 18.9454 9.18071C18.4669 9.18071 18.0702 9.07367 17.7553 8.85958C17.4405 8.6329 17.2075 8.33696 17.0564 7.97175C16.9179 7.59395 16.8549 7.18467 16.8675 6.7439C16.8801 6.13942 17.0564 5.55383 17.3964 4.98713C17.7365 4.40784 18.2402 3.92929 18.9076 3.55149C19.5751 3.1611 20.4125 2.9659 21.42 2.9659C21.8608 2.9659 22.3267 2.99738 22.8179 3.06035C23.3216 3.11072 23.8316 3.17369 24.348 3.24925C24.8769 3.32481 25.3932 3.39407 25.8969 3.45704C26.4133 3.50741 26.8981 3.5326 27.3515 3.5326C27.3515 4.22523 27.3389 4.95565 27.3137 5.72384C27.3011 6.49203 27.2822 7.27282 27.257 8.0662C27.2444 8.85958 27.2444 9.64037 27.257 10.4086C27.2696 11.2271 27.3011 12.0142 27.3515 12.7698C27.4018 13.5254 27.4837 14.2243 27.597 14.8666C27.7104 15.4963 27.8678 16.0504 28.0693 16.5289C28.2708 17.0201 28.5226 17.4168 28.8249 17.719C28.7745 17.9079 28.6549 18.1031 28.466 18.3046C28.2897 18.5061 28.0693 18.6761 27.8048 18.8146C27.5404 18.9531 27.2444 19.0224 26.917 19.0224ZM22.0623 11.4853H24.4046C24.4046 11.0445 24.4109 10.5282 24.4235 9.93631C24.4361 9.34442 24.455 8.70216 24.4802 8.00953C24.5054 7.3043 24.5369 6.58648 24.5746 5.85607H24.5369C24.0961 7.01466 23.6553 8.0662 23.2146 9.0107C22.7864 9.9552 22.4023 10.7801 22.0623 11.4853Z" fill="#A5CE4F"/>
</svg>
