<svg xmlns="http://www.w3.org/2000/svg" width="14" height="14" viewBox="0 0 14 14" fill="none">
  <path d="M8.74 11.1849C8.64146 11.1854 8.54382 11.1662 8.45281 11.1284C8.3618 11.0906 8.27925 11.035 8.21 10.9649L4.71 7.46491C4.56955 7.32428 4.49066 7.13366 4.49066 6.93491C4.49066 6.73615 4.56955 6.54553 4.71 6.40491L8.21 2.93491C8.35096 2.84351 8.51852 2.80209 8.68582 2.81728C8.85313 2.83247 9.01049 2.90339 9.13268 3.01866C9.25488 3.13394 9.33483 3.28691 9.35973 3.45305C9.38463 3.61918 9.35303 3.78887 9.27 3.93491L6.27 6.93491L9.27 9.93491C9.41045 10.0755 9.48934 10.2662 9.48934 10.4649C9.48934 10.6637 9.41045 10.8543 9.27 10.9949C9.12527 11.1256 8.9348 11.1939 8.74 11.1849Z" fill="#FFF"/>
</svg>