<svg xmlns="http://www.w3.org/2000/svg" width="15" height="14" viewBox="0 0 15 14" fill="none">
  <path fill-rule="evenodd" clip-rule="evenodd" d="M6.70198 11.1641C6.79378 11.2022 6.89226 11.2216 6.99165 11.2211C7.18813 11.2302 7.38024 11.1613 7.52621 11.0295C7.66787 10.8877 7.74744 10.6954 7.74744 10.4949C7.74744 10.2945 7.66787 10.1022 7.52621 9.96036L4.50037 6.93451L7.52621 3.90867C7.60996 3.76138 7.64183 3.59023 7.61672 3.42266C7.5916 3.25509 7.51096 3.10081 7.38771 2.98454C7.26446 2.86826 7.10575 2.79674 6.937 2.78142C6.76826 2.7661 6.59925 2.80788 6.45708 2.90006L2.95719 6.39995C2.81553 6.54179 2.73596 6.73405 2.73596 6.93451C2.73596 7.13498 2.81553 7.32724 2.95719 7.46908L6.45708 10.9992C6.52692 11.0699 6.61018 11.126 6.70198 11.1641ZM12.0348 10.969C12.1634 11.1157 12.3445 11.2062 12.5391 11.2211C12.7337 11.2062 12.9147 11.1157 13.0434 10.969C13.1674 10.8303 13.236 10.6507 13.236 10.4647C13.236 10.2786 13.1674 10.099 13.0434 9.96036L10.0175 6.93451L13.0434 3.90867C13.1108 3.76751 13.1328 3.60892 13.1063 3.45474C13.0799 3.30057 13.0063 3.15838 12.8957 3.04776C12.7851 2.93715 12.6429 2.86355 12.4887 2.8371C12.3345 2.81064 12.1759 2.83264 12.0348 2.90006L8.50462 6.36969C8.36296 6.51153 8.28339 6.70379 8.28339 6.90425C8.28339 7.10472 8.36296 7.29698 8.50462 7.43882L12.0348 10.969Z" fill="#6B7280"/>
</svg>